<svg width="55" height="55" viewBox="0 0 55 55" fill="none" xmlns="http://www.w3.org/2000/svg">
<g clip-path="url(#clip0_496_1905)">
<path d="M22.2033 54.6548C21.6635 54.6575 21.1357 54.4954 20.6905 54.1902C20.2453 53.885 19.9039 53.4512 19.7118 52.9468L15.459 41.8878C15.3728 41.6649 15.2411 41.4625 15.0721 41.2936C14.9032 41.1246 14.7008 40.9929 14.4779 40.9068L3.41572 36.6507C2.91181 36.4573 2.47839 36.1157 2.17266 35.6709C1.86693 35.2261 1.70327 34.699 1.70327 34.1592C1.70327 33.6195 1.86693 33.0924 2.17266 32.6476C2.47839 32.2028 2.91181 31.8612 3.41572 31.6678L14.4747 27.4149C14.6976 27.3288 14.9 27.197 15.0689 27.0281C15.2379 26.8592 15.3696 26.6568 15.4558 26.4339L19.7118 15.3717C19.9052 14.8678 20.2468 14.4344 20.6916 14.1286C21.1365 13.8229 21.6635 13.6592 22.2033 13.6592C22.743 13.6592 23.2701 13.8229 23.7149 14.1286C24.1597 14.4344 24.5013 14.8678 24.6947 15.3717L28.9476 26.4307C29.0337 26.6536 29.1655 26.856 29.3344 27.0249C29.5033 27.1938 29.7057 27.3256 29.9286 27.4117L40.9236 31.6421C41.448 31.8365 41.8998 32.1878 42.2174 32.6481C42.5351 33.1085 42.7031 33.6555 42.6988 34.2148C42.6906 34.7451 42.5235 35.2608 42.219 35.6951C41.9145 36.1294 41.4866 36.4623 40.9908 36.6507L29.9318 40.9035C29.7089 40.9897 29.5065 41.1214 29.3376 41.2904C29.1687 41.4593 29.0369 41.6617 28.9508 41.8846L24.6947 52.9468C24.5027 53.4512 24.1612 53.885 23.716 54.1902C23.2708 54.4954 22.743 54.6575 22.2033 54.6548ZM9.39357 18.7876C9.07712 18.7876 8.76811 18.6917 8.50723 18.5126C8.24636 18.3335 8.04588 18.0795 7.9322 17.7842L6.13244 13.1044C6.09343 13.002 6.03323 12.9091 5.95578 12.8316C5.87833 12.7542 5.78538 12.694 5.68303 12.655L1.00322 10.8552C0.707938 10.7415 0.454027 10.541 0.274942 10.2801C0.0958569 10.0193 0 9.71027 0 9.39384C0 9.07742 0.0958569 8.76842 0.274942 8.50755C0.454027 8.24668 0.707938 8.04618 1.00322 7.93247L5.68303 6.13271C5.78528 6.09353 5.87813 6.03326 5.95556 5.95583C6.03299 5.87841 6.09325 5.78555 6.13244 5.6833L7.91619 1.04513C8.01678 0.772071 8.18989 0.531589 8.4169 0.349529C8.64391 0.167469 8.91624 0.0507143 9.20463 0.0118132C9.55086 -0.0302771 9.90124 0.0444233 10.2002 0.224069C10.4992 0.403715 10.7296 0.678023 10.8549 1.0035L12.6547 5.6833C12.6939 5.78555 12.7542 5.87841 12.8316 5.95583C12.909 6.03326 13.0019 6.09353 13.1041 6.13271L17.7839 7.93247C18.0792 8.04618 18.3331 8.24668 18.5122 8.50755C18.6913 8.76842 18.7871 9.07742 18.7871 9.39384C18.7871 9.71027 18.6913 10.0193 18.5122 10.2801C18.3331 10.541 18.0792 10.7415 17.7839 10.8552L13.1041 12.655C13.0018 12.694 12.9088 12.7542 12.8314 12.8316C12.7539 12.9091 12.6937 13.002 12.6547 13.1044L10.8549 17.7842C10.7413 18.0795 10.5408 18.3335 10.2799 18.5126C10.019 18.6917 9.71002 18.7876 9.39357 18.7876ZM42.6988 27.3274C42.3535 27.3273 42.0165 27.2226 41.732 27.0271C41.4475 26.8316 41.2289 26.5544 41.105 26.2322L38.6669 19.8946C38.624 19.7829 38.5581 19.6815 38.4736 19.5969C38.389 19.5123 38.2876 19.4464 38.1759 19.4036L31.8383 16.9654C31.5163 16.8414 31.2395 16.6227 31.0442 16.3382C30.8489 16.0537 30.7444 15.7168 30.7444 15.3717C30.7444 15.0266 30.8489 14.6897 31.0442 14.4052C31.2395 14.1207 31.5163 13.902 31.8383 13.778L38.1759 11.3399C38.2876 11.297 38.389 11.2311 38.4736 11.1465C38.5581 11.0619 38.624 10.9605 38.6669 10.8488L41.0869 4.55605C41.1974 4.25847 41.3864 3.99641 41.634 3.79772C41.8815 3.59904 42.1783 3.47118 42.4927 3.42773C42.8706 3.38199 43.2528 3.46376 43.5789 3.66005C43.905 3.85634 44.1561 4.15591 44.2925 4.51122L46.7306 10.8488C46.7735 10.9605 46.8394 11.0619 46.924 11.1465C47.0086 11.2311 47.11 11.297 47.2216 11.3399L53.5592 13.778C53.8812 13.902 54.1581 14.1207 54.3533 14.4052C54.5486 14.6897 54.6531 15.0266 54.6531 15.3717C54.6531 15.7168 54.5486 16.0537 54.3533 16.3382C54.1581 16.6227 53.8812 16.8414 53.5592 16.9654L47.2216 19.4036C47.11 19.4464 47.0086 19.5123 46.924 19.5969C46.8394 19.6815 46.7735 19.7829 46.7306 19.8946L44.2925 26.2322C44.1687 26.5544 43.9501 26.8316 43.6656 27.0271C43.3811 27.2226 43.044 27.3273 42.6988 27.3274Z" fill="#FFD646"/>
</g>
<defs>
<clipPath id="clip0_496_1905">
<rect width="54.6547" height="54.6547" fill="white"/>
</clipPath>
</defs>
</svg>
