<svg width="118" height="103" viewBox="0 0 118 103" fill="none" xmlns="http://www.w3.org/2000/svg">
<g filter="url(#filter0_d_448_3113)">
<mask id="path-1-outside-1_448_3113" maskUnits="userSpaceOnUse" x="0" y="-0.216309" width="118" height="102" fill="black">
<rect fill="white" y="-0.216309" width="118" height="102"/>
<path fillRule="evenodd" clipRule="evenodd" d="M19.9664 1.78373C19.1395 1.78373 18.4691 2.45406 18.4691 3.28096V15.2588C18.4691 16.0857 19.1395 16.756 19.9664 16.756H31.9442C32.7711 16.756 33.4414 16.0857 33.4414 15.2588V3.28096C33.4414 2.45406 32.7711 1.78373 31.9442 1.78373H19.9664ZM85.846 1.78373C85.0191 1.78373 84.3488 2.45406 84.3488 3.28096V15.2588C84.3488 16.0857 85.0191 16.756 85.846 16.756H97.8238C98.6507 16.756 99.3211 16.0857 99.3211 15.2588V3.28096C99.3211 2.45406 98.6507 1.78373 97.8238 1.78373H85.846ZM2.0002 19.7505C2.0002 18.9236 2.67054 18.2533 3.49743 18.2533H15.4753C16.3022 18.2533 16.9725 18.9236 16.9725 19.7505V31.7283C16.9725 32.5552 16.3022 33.2256 15.4753 33.2256H3.49743C2.67054 33.2256 2.0002 32.5552 2.0002 31.7283V19.7505ZM3.49743 34.7229C2.67054 34.7229 2.0002 35.3933 2.0002 36.2202V48.198C2.0002 49.0249 2.67054 49.6952 3.49743 49.6952H15.4753C16.3022 49.6952 16.9725 49.0249 16.9725 48.198V36.2202C16.9725 35.3933 16.3022 34.7229 15.4753 34.7229H3.49743ZM18.4691 19.7505C18.4691 18.9236 19.1395 18.2533 19.9664 18.2533H31.9442C32.7711 18.2533 33.4414 18.9236 33.4414 19.7505V31.7283C33.4414 32.5552 32.7711 33.2256 31.9442 33.2256H19.9664C19.1395 33.2256 18.4691 32.5552 18.4691 31.7283V19.7505ZM19.9664 34.7229C19.1395 34.7229 18.4691 35.3933 18.4691 36.2202V48.198C18.4691 49.0249 19.1395 49.6952 19.9664 49.6952H31.9442C32.7711 49.6952 33.4414 49.0249 33.4414 48.198V36.2202C33.4414 35.3933 32.7711 34.7229 31.9442 34.7229H19.9664ZM18.4691 52.6896C18.4691 51.8627 19.1395 51.1924 19.9664 51.1924H31.9442C32.7711 51.1924 33.4414 51.8627 33.4414 52.6896V64.6674C33.4414 65.4943 32.7711 66.1647 31.9442 66.1647H19.9664C19.1395 66.1647 18.4691 65.4943 18.4691 64.6674V52.6896ZM36.4353 18.2533C35.6084 18.2533 34.9381 18.9236 34.9381 19.7505V31.7283C34.9381 32.5552 35.6084 33.2256 36.4353 33.2256H48.4131C49.24 33.2256 49.9104 32.5552 49.9104 31.7283V19.7505C49.9104 18.9236 49.24 18.2533 48.4131 18.2533H36.4353ZM34.9381 36.2202C34.9381 35.3933 35.6084 34.7229 36.4353 34.7229H48.4131C49.24 34.7229 49.9104 35.3933 49.9104 36.2202V48.198C49.9104 49.0249 49.24 49.6952 48.4131 49.6952H36.4353C35.6084 49.6952 34.9381 49.0249 34.9381 48.198V36.2202ZM36.4353 51.1924C35.6084 51.1924 34.9381 51.8627 34.9381 52.6896V64.6674C34.9381 65.4943 35.6084 66.1647 36.4353 66.1647H48.4131C49.24 66.1647 49.9104 65.4943 49.9104 64.6674V52.6896C49.9104 51.8627 49.24 51.1924 48.4131 51.1924H36.4353ZM34.9381 69.159C34.9381 68.3321 35.6084 67.6618 36.4353 67.6618H48.4131C49.24 67.6618 49.9104 68.3321 49.9104 69.159V81.1368C49.9104 81.9637 49.24 82.6341 48.4131 82.6341H36.4353C35.6084 82.6341 34.9381 81.9637 34.9381 81.1368V69.159ZM52.9081 34.7229C52.0812 34.7229 51.4109 35.3933 51.4109 36.2202V48.198C51.4109 49.0249 52.0812 49.6952 52.9081 49.6952H64.886C65.7129 49.6952 66.3832 49.0249 66.3832 48.198V36.2202C66.3832 35.3933 65.7129 34.7229 64.886 34.7229H52.9081ZM51.4109 52.6896C51.4109 51.8627 52.0812 51.1924 52.9081 51.1924H64.886C65.7129 51.1924 66.3832 51.8627 66.3832 52.6896V64.6674C66.3832 65.4943 65.7129 66.1647 64.886 66.1647H52.9081C52.0812 66.1647 51.4109 65.4943 51.4109 64.6674V52.6896ZM52.9081 67.6618C52.0812 67.6618 51.4109 68.3321 51.4109 69.159V81.1368C51.4109 81.9637 52.0812 82.6341 52.9081 82.6341H64.886C65.7129 82.6341 66.3832 81.9637 66.3832 81.1368V69.159C66.3832 68.3321 65.7129 67.6618 64.886 67.6618H52.9081ZM51.4109 85.6286C51.4109 84.8017 52.0812 84.1313 52.9081 84.1313H64.886C65.7129 84.1313 66.3832 84.8017 66.3832 85.6286V97.6064C66.3832 98.4333 65.7129 99.1036 64.886 99.1036H52.9081C52.0812 99.1036 51.4109 98.4333 51.4109 97.6064V85.6286ZM69.3771 34.7229C68.5502 34.7229 67.8798 35.3933 67.8798 36.2202V48.198C67.8798 49.0249 68.5502 49.6952 69.3771 49.6952H81.3549C82.1818 49.6952 82.8521 49.0249 82.8521 48.198V36.2202C82.8521 35.3933 82.1818 34.7229 81.3549 34.7229H69.3771ZM67.8798 52.6896C67.8798 51.8627 68.5502 51.1924 69.3771 51.1924H81.3549C82.1818 51.1924 82.8521 51.8627 82.8521 52.6896V64.6674C82.8521 65.4943 82.1818 66.1647 81.3549 66.1647H69.3771C68.5502 66.1647 67.8798 65.4943 67.8798 64.6674V52.6896ZM69.3771 67.6618C68.5502 67.6618 67.8798 68.3321 67.8798 69.159V81.1368C67.8798 81.9637 68.5502 82.6341 69.3771 82.6341H81.3549C82.1818 82.6341 82.8521 81.9637 82.8521 81.1368V69.159C82.8521 68.3321 82.1818 67.6618 81.3549 67.6618H69.3771ZM84.3488 36.2202C84.3488 35.3933 85.0191 34.7229 85.846 34.7229H97.8238C98.6507 34.7229 99.3211 35.3933 99.3211 36.2202V48.198C99.3211 49.0249 98.6507 49.6952 97.8238 49.6952H85.846C85.0191 49.6952 84.3488 49.0249 84.3488 48.198V36.2202ZM85.846 51.1924C85.0191 51.1924 84.3488 51.8627 84.3488 52.6896V64.6674C84.3488 65.4943 85.0191 66.1647 85.846 66.1647H97.8238C98.6507 66.1647 99.3211 65.4943 99.3211 64.6674V52.6896C99.3211 51.8627 98.6507 51.1924 97.8238 51.1924H85.846ZM100.818 36.2202C100.818 35.3933 101.488 34.7229 102.315 34.7229H114.293C115.12 34.7229 115.79 35.3933 115.79 36.2202V48.198C115.79 49.0249 115.12 49.6952 114.293 49.6952H102.315C101.488 49.6952 100.818 49.0249 100.818 48.198V36.2202ZM69.3771 18.2533C68.5502 18.2533 67.8798 18.9236 67.8798 19.7505V31.7283C67.8798 32.5552 68.5502 33.2256 69.3771 33.2256H81.3549C82.1818 33.2256 82.8521 32.5552 82.8521 31.7283V19.7505C82.8521 18.9236 82.1818 18.2533 81.3549 18.2533H69.3771ZM84.3488 19.7505C84.3488 18.9236 85.0191 18.2533 85.846 18.2533H97.8238C98.6507 18.2533 99.3211 18.9236 99.3211 19.7505V31.7283C99.3211 32.5552 98.6507 33.2256 97.8238 33.2256H85.846C85.0191 33.2256 84.3488 32.5552 84.3488 31.7283V19.7505ZM102.315 18.2533C101.488 18.2533 100.818 18.9236 100.818 19.7505V31.7283C100.818 32.5552 101.488 33.2256 102.315 33.2256H114.293C115.12 33.2256 115.79 32.5552 115.79 31.7283V19.7505C115.79 18.9236 115.12 18.2533 114.293 18.2533H102.315Z"/>
</mask>
<path fillRule="evenodd" clipRule="evenodd" d="M19.9664 1.78373C19.1395 1.78373 18.4691 2.45406 18.4691 3.28096V15.2588C18.4691 16.0857 19.1395 16.756 19.9664 16.756H31.9442C32.7711 16.756 33.4414 16.0857 33.4414 15.2588V3.28096C33.4414 2.45406 32.7711 1.78373 31.9442 1.78373H19.9664ZM85.846 1.78373C85.0191 1.78373 84.3488 2.45406 84.3488 3.28096V15.2588C84.3488 16.0857 85.0191 16.756 85.846 16.756H97.8238C98.6507 16.756 99.3211 16.0857 99.3211 15.2588V3.28096C99.3211 2.45406 98.6507 1.78373 97.8238 1.78373H85.846ZM2.0002 19.7505C2.0002 18.9236 2.67054 18.2533 3.49743 18.2533H15.4753C16.3022 18.2533 16.9725 18.9236 16.9725 19.7505V31.7283C16.9725 32.5552 16.3022 33.2256 15.4753 33.2256H3.49743C2.67054 33.2256 2.0002 32.5552 2.0002 31.7283V19.7505ZM3.49743 34.7229C2.67054 34.7229 2.0002 35.3933 2.0002 36.2202V48.198C2.0002 49.0249 2.67054 49.6952 3.49743 49.6952H15.4753C16.3022 49.6952 16.9725 49.0249 16.9725 48.198V36.2202C16.9725 35.3933 16.3022 34.7229 15.4753 34.7229H3.49743ZM18.4691 19.7505C18.4691 18.9236 19.1395 18.2533 19.9664 18.2533H31.9442C32.7711 18.2533 33.4414 18.9236 33.4414 19.7505V31.7283C33.4414 32.5552 32.7711 33.2256 31.9442 33.2256H19.9664C19.1395 33.2256 18.4691 32.5552 18.4691 31.7283V19.7505ZM19.9664 34.7229C19.1395 34.7229 18.4691 35.3933 18.4691 36.2202V48.198C18.4691 49.0249 19.1395 49.6952 19.9664 49.6952H31.9442C32.7711 49.6952 33.4414 49.0249 33.4414 48.198V36.2202C33.4414 35.3933 32.7711 34.7229 31.9442 34.7229H19.9664ZM18.4691 52.6896C18.4691 51.8627 19.1395 51.1924 19.9664 51.1924H31.9442C32.7711 51.1924 33.4414 51.8627 33.4414 52.6896V64.6674C33.4414 65.4943 32.7711 66.1647 31.9442 66.1647H19.9664C19.1395 66.1647 18.4691 65.4943 18.4691 64.6674V52.6896ZM36.4353 18.2533C35.6084 18.2533 34.9381 18.9236 34.9381 19.7505V31.7283C34.9381 32.5552 35.6084 33.2256 36.4353 33.2256H48.4131C49.24 33.2256 49.9104 32.5552 49.9104 31.7283V19.7505C49.9104 18.9236 49.24 18.2533 48.4131 18.2533H36.4353ZM34.9381 36.2202C34.9381 35.3933 35.6084 34.7229 36.4353 34.7229H48.4131C49.24 34.7229 49.9104 35.3933 49.9104 36.2202V48.198C49.9104 49.0249 49.24 49.6952 48.4131 49.6952H36.4353C35.6084 49.6952 34.9381 49.0249 34.9381 48.198V36.2202ZM36.4353 51.1924C35.6084 51.1924 34.9381 51.8627 34.9381 52.6896V64.6674C34.9381 65.4943 35.6084 66.1647 36.4353 66.1647H48.4131C49.24 66.1647 49.9104 65.4943 49.9104 64.6674V52.6896C49.9104 51.8627 49.24 51.1924 48.4131 51.1924H36.4353ZM34.9381 69.159C34.9381 68.3321 35.6084 67.6618 36.4353 67.6618H48.4131C49.24 67.6618 49.9104 68.3321 49.9104 69.159V81.1368C49.9104 81.9637 49.24 82.6341 48.4131 82.6341H36.4353C35.6084 82.6341 34.9381 81.9637 34.9381 81.1368V69.159ZM52.9081 34.7229C52.0812 34.7229 51.4109 35.3933 51.4109 36.2202V48.198C51.4109 49.0249 52.0812 49.6952 52.9081 49.6952H64.886C65.7129 49.6952 66.3832 49.0249 66.3832 48.198V36.2202C66.3832 35.3933 65.7129 34.7229 64.886 34.7229H52.9081ZM51.4109 52.6896C51.4109 51.8627 52.0812 51.1924 52.9081 51.1924H64.886C65.7129 51.1924 66.3832 51.8627 66.3832 52.6896V64.6674C66.3832 65.4943 65.7129 66.1647 64.886 66.1647H52.9081C52.0812 66.1647 51.4109 65.4943 51.4109 64.6674V52.6896ZM52.9081 67.6618C52.0812 67.6618 51.4109 68.3321 51.4109 69.159V81.1368C51.4109 81.9637 52.0812 82.6341 52.9081 82.6341H64.886C65.7129 82.6341 66.3832 81.9637 66.3832 81.1368V69.159C66.3832 68.3321 65.7129 67.6618 64.886 67.6618H52.9081ZM51.4109 85.6286C51.4109 84.8017 52.0812 84.1313 52.9081 84.1313H64.886C65.7129 84.1313 66.3832 84.8017 66.3832 85.6286V97.6064C66.3832 98.4333 65.7129 99.1036 64.886 99.1036H52.9081C52.0812 99.1036 51.4109 98.4333 51.4109 97.6064V85.6286ZM69.3771 34.7229C68.5502 34.7229 67.8798 35.3933 67.8798 36.2202V48.198C67.8798 49.0249 68.5502 49.6952 69.3771 49.6952H81.3549C82.1818 49.6952 82.8521 49.0249 82.8521 48.198V36.2202C82.8521 35.3933 82.1818 34.7229 81.3549 34.7229H69.3771ZM67.8798 52.6896C67.8798 51.8627 68.5502 51.1924 69.3771 51.1924H81.3549C82.1818 51.1924 82.8521 51.8627 82.8521 52.6896V64.6674C82.8521 65.4943 82.1818 66.1647 81.3549 66.1647H69.3771C68.5502 66.1647 67.8798 65.4943 67.8798 64.6674V52.6896ZM69.3771 67.6618C68.5502 67.6618 67.8798 68.3321 67.8798 69.159V81.1368C67.8798 81.9637 68.5502 82.6341 69.3771 82.6341H81.3549C82.1818 82.6341 82.8521 81.9637 82.8521 81.1368V69.159C82.8521 68.3321 82.1818 67.6618 81.3549 67.6618H69.3771ZM84.3488 36.2202C84.3488 35.3933 85.0191 34.7229 85.846 34.7229H97.8238C98.6507 34.7229 99.3211 35.3933 99.3211 36.2202V48.198C99.3211 49.0249 98.6507 49.6952 97.8238 49.6952H85.846C85.0191 49.6952 84.3488 49.0249 84.3488 48.198V36.2202ZM85.846 51.1924C85.0191 51.1924 84.3488 51.8627 84.3488 52.6896V64.6674C84.3488 65.4943 85.0191 66.1647 85.846 66.1647H97.8238C98.6507 66.1647 99.3211 65.4943 99.3211 64.6674V52.6896C99.3211 51.8627 98.6507 51.1924 97.8238 51.1924H85.846ZM100.818 36.2202C100.818 35.3933 101.488 34.7229 102.315 34.7229H114.293C115.12 34.7229 115.79 35.3933 115.79 36.2202V48.198C115.79 49.0249 115.12 49.6952 114.293 49.6952H102.315C101.488 49.6952 100.818 49.0249 100.818 48.198V36.2202ZM69.3771 18.2533C68.5502 18.2533 67.8798 18.9236 67.8798 19.7505V31.7283C67.8798 32.5552 68.5502 33.2256 69.3771 33.2256H81.3549C82.1818 33.2256 82.8521 32.5552 82.8521 31.7283V19.7505C82.8521 18.9236 82.1818 18.2533 81.3549 18.2533H69.3771ZM84.3488 19.7505C84.3488 18.9236 85.0191 18.2533 85.846 18.2533H97.8238C98.6507 18.2533 99.3211 18.9236 99.3211 19.7505V31.7283C99.3211 32.5552 98.6507 33.2256 97.8238 33.2256H85.846C85.0191 33.2256 84.3488 32.5552 84.3488 31.7283V19.7505ZM102.315 18.2533C101.488 18.2533 100.818 18.9236 100.818 19.7505V31.7283C100.818 32.5552 101.488 33.2256 102.315 33.2256H114.293C115.12 33.2256 115.79 32.5552 115.79 31.7283V19.7505C115.79 18.9236 115.12 18.2533 114.293 18.2533H102.315Z" fill="url(#paint0_linear_448_3113)"/>
<path d="M20.1835 3.28096C20.1835 3.4009 20.0863 3.49814 19.9664 3.49814V0.0693237C18.1926 0.0693237 16.7547 1.50722 16.7547 3.28096H20.1835ZM20.1835 15.2588V3.28096H16.7547V15.2588H20.1835ZM19.9664 15.0416C20.0863 15.0416 20.1835 15.1389 20.1835 15.2588H16.7547C16.7547 17.0325 18.1926 18.4704 19.9664 18.4704V15.0416ZM31.9442 15.0416H19.9664V18.4704H31.9442V15.0416ZM31.727 15.2588C31.727 15.1389 31.8243 15.0416 31.9442 15.0416V18.4704C33.7179 18.4704 35.1558 17.0325 35.1558 15.2588H31.727ZM31.727 3.28096V15.2588H35.1558V3.28096H31.727ZM31.9442 3.49814C31.8243 3.49814 31.727 3.4009 31.727 3.28096H35.1558C35.1558 1.50722 33.7179 0.0693237 31.9442 0.0693237V3.49814ZM19.9664 3.49814H31.9442V0.0693237H19.9664V3.49814ZM86.0632 3.28096C86.0632 3.40091 85.9659 3.49814 85.846 3.49814V0.0693237C84.0723 0.0693237 82.6344 1.50722 82.6344 3.28096H86.0632ZM86.0632 15.2588V3.28096H82.6344V15.2588H86.0632ZM85.846 15.0416C85.9659 15.0416 86.0632 15.1389 86.0632 15.2588H82.6344C82.6344 17.0325 84.0723 18.4704 85.846 18.4704V15.0416ZM97.8238 15.0416H85.846V18.4704H97.8238V15.0416ZM97.6067 15.2588C97.6067 15.1389 97.7039 15.0416 97.8238 15.0416V18.4704C99.5976 18.4704 101.035 17.0325 101.035 15.2588H97.6067ZM97.6067 3.28096V15.2588H101.035V3.28096H97.6067ZM97.8238 3.49814C97.7039 3.49814 97.6067 3.40091 97.6067 3.28096H101.035C101.035 1.50722 99.5976 0.0693237 97.8238 0.0693237V3.49814ZM85.846 3.49814H97.8238V0.0693237H85.846V3.49814ZM3.49743 16.5389C1.72369 16.5389 0.285796 17.9768 0.285796 19.7505H3.71461C3.71461 19.8704 3.61738 19.9677 3.49743 19.9677V16.5389ZM15.4753 16.5389H3.49743V19.9677H15.4753V16.5389ZM18.6869 19.7505C18.6869 17.9768 17.249 16.5389 15.4753 16.5389V19.9677C15.3553 19.9677 15.2581 19.8704 15.2581 19.7505H18.6869ZM18.6869 31.7283V19.7505H15.2581V31.7283H18.6869ZM15.4753 34.94C17.249 34.94 18.6869 33.5021 18.6869 31.7283H15.2581C15.2581 31.6084 15.3553 31.5112 15.4753 31.5112V34.94ZM3.49743 34.94H15.4753V31.5112H3.49743V34.94ZM0.285796 31.7283C0.285796 33.5021 1.72369 34.94 3.49743 34.94V31.5112C3.61738 31.5112 3.71461 31.6084 3.71461 31.7283H0.285796ZM0.285796 19.7505V31.7283H3.71461V19.7505H0.285796ZM3.71461 36.2202C3.71461 36.3401 3.61738 36.4373 3.49743 36.4373V33.0085C1.72369 33.0085 0.285796 34.4464 0.285796 36.2202H3.71461ZM3.71461 48.198V36.2202H0.285796V48.198H3.71461ZM3.49743 47.9808C3.61738 47.9808 3.71461 48.0781 3.71461 48.198H0.285796C0.285796 49.9717 1.72369 51.4096 3.49743 51.4096V47.9808ZM15.4753 47.9808H3.49743V51.4096H15.4753V47.9808ZM15.2581 48.198C15.2581 48.0781 15.3553 47.9808 15.4753 47.9808V51.4096C17.249 51.4096 18.6869 49.9717 18.6869 48.198H15.2581ZM15.2581 36.2202V48.198H18.6869V36.2202H15.2581ZM15.4753 36.4373C15.3553 36.4373 15.2581 36.3401 15.2581 36.2202H18.6869C18.6869 34.4464 17.249 33.0085 15.4753 33.0085V36.4373ZM3.49743 36.4373H15.4753V33.0085H3.49743V36.4373ZM19.9664 16.5389C18.1926 16.5389 16.7547 17.9768 16.7547 19.7505H20.1835C20.1835 19.8704 20.0863 19.9677 19.9664 19.9677V16.5389ZM31.9442 16.5389H19.9664V19.9677H31.9442V16.5389ZM35.1558 19.7505C35.1558 17.9768 33.7179 16.5389 31.9442 16.5389V19.9677C31.8243 19.9677 31.727 19.8704 31.727 19.7505H35.1558ZM35.1558 31.7283V19.7505H31.727V31.7283H35.1558ZM31.9442 34.94C33.7179 34.94 35.1558 33.5021 35.1558 31.7283H31.727C31.727 31.6084 31.8243 31.5112 31.9442 31.5112V34.94ZM19.9664 34.94H31.9442V31.5112H19.9664V34.94ZM16.7547 31.7283C16.7547 33.5021 18.1926 34.94 19.9664 34.94V31.5112C20.0863 31.5112 20.1835 31.6084 20.1835 31.7283H16.7547ZM16.7547 19.7505V31.7283H20.1835V19.7505H16.7547ZM20.1835 36.2202C20.1835 36.3401 20.0863 36.4373 19.9664 36.4373V33.0085C18.1926 33.0085 16.7547 34.4464 16.7547 36.2202H20.1835ZM20.1835 48.198V36.2202H16.7547V48.198H20.1835ZM19.9664 47.9808C20.0863 47.9808 20.1835 48.0781 20.1835 48.198H16.7547C16.7547 49.9717 18.1926 51.4096 19.9664 51.4096V47.9808ZM31.9442 47.9808H19.9664V51.4096H31.9442V47.9808ZM31.727 48.198C31.727 48.0781 31.8243 47.9808 31.9442 47.9808V51.4096C33.7179 51.4096 35.1558 49.9717 35.1558 48.198H31.727ZM31.727 36.2202V48.198H35.1558V36.2202H31.727ZM31.9442 36.4373C31.8243 36.4373 31.727 36.3401 31.727 36.2202H35.1558C35.1558 34.4464 33.7179 33.0085 31.9442 33.0085V36.4373ZM19.9664 36.4373H31.9442V33.0085H19.9664V36.4373ZM19.9664 49.478C18.1926 49.478 16.7547 50.9159 16.7547 52.6896H20.1835C20.1835 52.8095 20.0863 52.9068 19.9664 52.9068V49.478ZM31.9442 49.478H19.9664V52.9068H31.9442V49.478ZM35.1558 52.6896C35.1558 50.9159 33.7179 49.478 31.9442 49.478V52.9068C31.8243 52.9068 31.727 52.8095 31.727 52.6896H35.1558ZM35.1558 64.6674V52.6896H31.727V64.6674H35.1558ZM31.9442 67.8791C33.7179 67.8791 35.1558 66.4412 35.1558 64.6674H31.727C31.727 64.5475 31.8243 64.4503 31.9442 64.4503V67.8791ZM19.9664 67.8791H31.9442V64.4503H19.9664V67.8791ZM16.7547 64.6674C16.7547 66.4412 18.1926 67.8791 19.9664 67.8791V64.4503C20.0863 64.4503 20.1835 64.5475 20.1835 64.6674H16.7547ZM16.7547 52.6896V64.6674H20.1835V52.6896H16.7547ZM36.6525 19.7505C36.6525 19.8704 36.5552 19.9677 36.4353 19.9677V16.5389C34.6616 16.5389 33.2237 17.9768 33.2237 19.7505H36.6525ZM36.6525 31.7283V19.7505H33.2237V31.7283H36.6525ZM36.4353 31.5112C36.5552 31.5112 36.6525 31.6084 36.6525 31.7283H33.2237C33.2237 33.5021 34.6616 34.94 36.4353 34.94V31.5112ZM48.4131 31.5112H36.4353V34.94H48.4131V31.5112ZM48.196 31.7283C48.196 31.6084 48.2932 31.5112 48.4131 31.5112V34.94C50.1869 34.94 51.6248 33.5021 51.6248 31.7283H48.196ZM48.196 19.7505V31.7283H51.6248V19.7505H48.196ZM48.4131 19.9677C48.2932 19.9677 48.196 19.8704 48.196 19.7505H51.6248C51.6248 17.9768 50.1869 16.5389 48.4131 16.5389V19.9677ZM36.4353 19.9677H48.4131V16.5389H36.4353V19.9677ZM36.4353 33.0085C34.6616 33.0085 33.2237 34.4464 33.2237 36.2202H36.6525C36.6525 36.3401 36.5552 36.4373 36.4353 36.4373V33.0085ZM48.4131 33.0085H36.4353V36.4373H48.4131V33.0085ZM51.6248 36.2202C51.6248 34.4464 50.1869 33.0085 48.4131 33.0085V36.4373C48.2932 36.4373 48.196 36.3401 48.196 36.2202H51.6248ZM51.6248 48.198V36.2202H48.196V48.198H51.6248ZM48.4131 51.4096C50.1869 51.4096 51.6248 49.9717 51.6248 48.198H48.196C48.196 48.0781 48.2932 47.9808 48.4131 47.9808V51.4096ZM36.4353 51.4096H48.4131V47.9808H36.4353V51.4096ZM33.2237 48.198C33.2237 49.9717 34.6616 51.4096 36.4353 51.4096V47.9808C36.5552 47.9808 36.6525 48.0781 36.6525 48.198H33.2237ZM33.2237 36.2202V48.198H36.6525V36.2202H33.2237ZM36.6525 52.6896C36.6525 52.8095 36.5552 52.9068 36.4353 52.9068V49.478C34.6616 49.478 33.2237 50.9159 33.2237 52.6896H36.6525ZM36.6525 64.6674V52.6896H33.2237V64.6674H36.6525ZM36.4353 64.4503C36.5552 64.4503 36.6525 64.5475 36.6525 64.6674H33.2237C33.2237 66.4412 34.6616 67.8791 36.4353 67.8791V64.4503ZM48.4131 64.4503H36.4353V67.8791H48.4131V64.4503ZM48.196 64.6674C48.196 64.5475 48.2932 64.4503 48.4131 64.4503V67.8791C50.1869 67.8791 51.6248 66.4412 51.6248 64.6674H48.196ZM48.196 52.6896V64.6674H51.6248V52.6896H48.196ZM48.4131 52.9068C48.2932 52.9068 48.196 52.8095 48.196 52.6896H51.6248C51.6248 50.9159 50.1869 49.478 48.4131 49.478V52.9068ZM36.4353 52.9068H48.4131V49.478H36.4353V52.9068ZM36.4353 65.9474C34.6616 65.9474 33.2237 67.3853 33.2237 69.159H36.6525C36.6525 69.279 36.5552 69.3762 36.4353 69.3762V65.9474ZM48.4131 65.9474H36.4353V69.3762H48.4131V65.9474ZM51.6248 69.159C51.6248 67.3853 50.1869 65.9474 48.4131 65.9474V69.3762C48.2932 69.3762 48.196 69.279 48.196 69.159H51.6248ZM51.6248 81.1368V69.159H48.196V81.1368H51.6248ZM48.4131 84.3485C50.1869 84.3485 51.6248 82.9106 51.6248 81.1368H48.196C48.196 81.0169 48.2932 80.9197 48.4131 80.9197V84.3485ZM36.4353 84.3485H48.4131V80.9197H36.4353V84.3485ZM33.2237 81.1368C33.2237 82.9106 34.6616 84.3485 36.4353 84.3485V80.9197C36.5552 80.9197 36.6525 81.0169 36.6525 81.1368H33.2237ZM33.2237 69.159V81.1368H36.6525V69.159H33.2237ZM53.1253 36.2202C53.1253 36.3401 53.0281 36.4373 52.9081 36.4373V33.0085C51.1344 33.0085 49.6965 34.4464 49.6965 36.2202H53.1253ZM53.1253 48.198V36.2202H49.6965V48.198H53.1253ZM52.9081 47.9808C53.0281 47.9808 53.1253 48.0781 53.1253 48.198H49.6965C49.6965 49.9717 51.1344 51.4096 52.9081 51.4096V47.9808ZM64.886 47.9808H52.9081V51.4096H64.886V47.9808ZM64.6688 48.198C64.6688 48.0781 64.766 47.9808 64.886 47.9808V51.4096C66.6597 51.4096 68.0976 49.9717 68.0976 48.198H64.6688ZM64.6688 36.2202V48.198H68.0976V36.2202H64.6688ZM64.886 36.4373C64.766 36.4373 64.6688 36.3401 64.6688 36.2202H68.0976C68.0976 34.4464 66.6597 33.0085 64.886 33.0085V36.4373ZM52.9081 36.4373H64.886V33.0085H52.9081V36.4373ZM52.9081 49.478C51.1344 49.478 49.6965 50.9159 49.6965 52.6896H53.1253C53.1253 52.8095 53.0281 52.9068 52.9081 52.9068V49.478ZM64.886 49.478H52.9081V52.9068H64.886V49.478ZM68.0976 52.6896C68.0976 50.9159 66.6597 49.478 64.886 49.478V52.9068C64.766 52.9068 64.6688 52.8095 64.6688 52.6896H68.0976ZM68.0976 64.6674V52.6896H64.6688V64.6674H68.0976ZM64.886 67.8791C66.6597 67.8791 68.0976 66.4412 68.0976 64.6674H64.6688C64.6688 64.5475 64.766 64.4503 64.886 64.4503V67.8791ZM52.9081 67.8791H64.886V64.4503H52.9081V67.8791ZM49.6965 64.6674C49.6965 66.4412 51.1344 67.8791 52.9081 67.8791V64.4503C53.0281 64.4503 53.1253 64.5475 53.1253 64.6674H49.6965ZM49.6965 52.6896V64.6674H53.1253V52.6896H49.6965ZM53.1253 69.159C53.1253 69.279 53.0281 69.3762 52.9081 69.3762V65.9474C51.1344 65.9474 49.6965 67.3853 49.6965 69.159H53.1253ZM53.1253 81.1368V69.159H49.6965V81.1368H53.1253ZM52.9081 80.9197C53.0281 80.9197 53.1253 81.0169 53.1253 81.1368H49.6965C49.6965 82.9106 51.1344 84.3485 52.9081 84.3485V80.9197ZM64.886 80.9197H52.9081V84.3485H64.886V80.9197ZM64.6688 81.1368C64.6688 81.0169 64.766 80.9197 64.886 80.9197V84.3485C66.6597 84.3485 68.0976 82.9106 68.0976 81.1368H64.6688ZM64.6688 69.159V81.1368H68.0976V69.159H64.6688ZM64.886 69.3762C64.766 69.3762 64.6688 69.279 64.6688 69.159H68.0976C68.0976 67.3853 66.6597 65.9474 64.886 65.9474V69.3762ZM52.9081 69.3762H64.886V65.9474H52.9081V69.3762ZM52.9081 82.4169C51.1344 82.4169 49.6965 83.8548 49.6965 85.6286H53.1253C53.1253 85.7485 53.0281 85.8457 52.9081 85.8457V82.4169ZM64.886 82.4169H52.9081V85.8457H64.886V82.4169ZM68.0976 85.6286C68.0976 83.8548 66.6597 82.4169 64.886 82.4169V85.8457C64.766 85.8457 64.6688 85.7485 64.6688 85.6286H68.0976ZM68.0976 97.6064V85.6286H64.6688V97.6064H68.0976ZM64.886 100.818C66.6597 100.818 68.0976 99.3801 68.0976 97.6064H64.6688C64.6688 97.4865 64.766 97.3892 64.886 97.3892V100.818ZM52.9081 100.818H64.886V97.3892H52.9081V100.818ZM49.6965 97.6064C49.6965 99.3801 51.1344 100.818 52.9081 100.818V97.3892C53.0281 97.3892 53.1253 97.4865 53.1253 97.6064H49.6965ZM49.6965 85.6286V97.6064H53.1253V85.6286H49.6965ZM69.5942 36.2202C69.5942 36.3401 69.497 36.4373 69.3771 36.4373V33.0085C67.6033 33.0085 66.1654 34.4464 66.1654 36.2202H69.5942ZM69.5942 48.198V36.2202H66.1654V48.198H69.5942ZM69.3771 47.9808C69.497 47.9808 69.5942 48.0781 69.5942 48.198H66.1654C66.1654 49.9717 67.6033 51.4096 69.3771 51.4096V47.9808ZM81.3549 47.9808H69.3771V51.4096H81.3549V47.9808ZM81.1377 48.198C81.1377 48.0781 81.235 47.9808 81.3549 47.9808V51.4096C83.1286 51.4096 84.5665 49.9717 84.5665 48.198H81.1377ZM81.1377 36.2202V48.198H84.5665V36.2202H81.1377ZM81.3549 36.4373C81.235 36.4373 81.1377 36.3401 81.1377 36.2202H84.5665C84.5665 34.4464 83.1286 33.0085 81.3549 33.0085V36.4373ZM69.3771 36.4373H81.3549V33.0085H69.3771V36.4373ZM69.3771 49.478C67.6033 49.478 66.1654 50.9159 66.1654 52.6896H69.5942C69.5942 52.8095 69.497 52.9068 69.3771 52.9068V49.478ZM81.3549 49.478H69.3771V52.9068H81.3549V49.478ZM84.5665 52.6896C84.5665 50.9159 83.1286 49.478 81.3549 49.478V52.9068C81.235 52.9068 81.1377 52.8095 81.1377 52.6896H84.5665ZM84.5665 64.6674V52.6896H81.1377V64.6674H84.5665ZM81.3549 67.8791C83.1286 67.8791 84.5665 66.4412 84.5665 64.6674H81.1377C81.1377 64.5475 81.235 64.4503 81.3549 64.4503V67.8791ZM69.3771 67.8791H81.3549V64.4503H69.3771V67.8791ZM66.1654 64.6674C66.1654 66.4412 67.6033 67.8791 69.3771 67.8791V64.4503C69.497 64.4503 69.5942 64.5475 69.5942 64.6674H66.1654ZM66.1654 52.6896V64.6674H69.5942V52.6896H66.1654ZM69.5942 69.159C69.5942 69.279 69.497 69.3762 69.3771 69.3762V65.9474C67.6033 65.9474 66.1654 67.3853 66.1654 69.159H69.5942ZM69.5942 81.1368V69.159H66.1654V81.1368H69.5942ZM69.3771 80.9197C69.497 80.9197 69.5942 81.0169 69.5942 81.1368H66.1654C66.1654 82.9106 67.6033 84.3485 69.3771 84.3485V80.9197ZM81.3549 80.9197H69.3771V84.3485H81.3549V80.9197ZM81.1377 81.1368C81.1377 81.0169 81.235 80.9197 81.3549 80.9197V84.3485C83.1286 84.3485 84.5665 82.9106 84.5665 81.1368H81.1377ZM81.1377 69.159V81.1368H84.5665V69.159H81.1377ZM81.3549 69.3762C81.235 69.3762 81.1377 69.279 81.1377 69.159H84.5665C84.5665 67.3853 83.1286 65.9474 81.3549 65.9474V69.3762ZM69.3771 69.3762H81.3549V65.9474H69.3771V69.3762ZM85.846 33.0085C84.0723 33.0085 82.6344 34.4464 82.6344 36.2202H86.0632C86.0632 36.3401 85.9659 36.4373 85.846 36.4373V33.0085ZM97.8238 33.0085H85.846V36.4373H97.8238V33.0085ZM101.035 36.2202C101.035 34.4464 99.5976 33.0085 97.8238 33.0085V36.4373C97.7039 36.4373 97.6067 36.3401 97.6067 36.2202H101.035ZM101.035 48.198V36.2202H97.6067V48.198H101.035ZM97.8238 51.4096C99.5976 51.4096 101.035 49.9717 101.035 48.198H97.6067C97.6067 48.0781 97.7039 47.9808 97.8238 47.9808V51.4096ZM85.846 51.4096H97.8238V47.9808H85.846V51.4096ZM82.6344 48.198C82.6344 49.9717 84.0723 51.4096 85.846 51.4096V47.9808C85.9659 47.9808 86.0632 48.0781 86.0632 48.198H82.6344ZM82.6344 36.2202V48.198H86.0632V36.2202H82.6344ZM86.0632 52.6896C86.0632 52.8095 85.9659 52.9068 85.846 52.9068V49.478C84.0723 49.478 82.6344 50.9159 82.6344 52.6896H86.0632ZM86.0632 64.6674V52.6896H82.6344V64.6674H86.0632ZM85.846 64.4503C85.9659 64.4503 86.0632 64.5475 86.0632 64.6674H82.6344C82.6344 66.4412 84.0723 67.8791 85.846 67.8791V64.4503ZM97.8238 64.4503H85.846V67.8791H97.8238V64.4503ZM97.6067 64.6674C97.6067 64.5475 97.7039 64.4503 97.8238 64.4503V67.8791C99.5976 67.8791 101.035 66.4412 101.035 64.6674H97.6067ZM97.6067 52.6896V64.6674H101.035V52.6896H97.6067ZM97.8238 52.9068C97.7039 52.9068 97.6067 52.8095 97.6067 52.6896H101.035C101.035 50.9159 99.5976 49.478 97.8238 49.478V52.9068ZM85.846 52.9068H97.8238V49.478H85.846V52.9068ZM102.315 33.0085C100.541 33.0085 99.1033 34.4464 99.1033 36.2202H102.532C102.532 36.3401 102.435 36.4373 102.315 36.4373V33.0085ZM114.293 33.0085H102.315V36.4373H114.293V33.0085ZM117.504 36.2202C117.504 34.4464 116.067 33.0085 114.293 33.0085V36.4373C114.173 36.4373 114.076 36.3401 114.076 36.2202H117.504ZM117.504 48.198V36.2202H114.076V48.198H117.504ZM114.293 51.4096C116.067 51.4096 117.504 49.9717 117.504 48.198H114.076C114.076 48.0781 114.173 47.9808 114.293 47.9808V51.4096ZM102.315 51.4096H114.293V47.9808H102.315V51.4096ZM99.1033 48.198C99.1033 49.9717 100.541 51.4096 102.315 51.4096V47.9808C102.435 47.9808 102.532 48.0781 102.532 48.198H99.1033ZM99.1033 36.2202V48.198H102.532V36.2202H99.1033ZM69.5942 19.7505C69.5942 19.8704 69.497 19.9677 69.3771 19.9677V16.5389C67.6033 16.5389 66.1654 17.9768 66.1654 19.7505H69.5942ZM69.5942 31.7283V19.7505H66.1654V31.7283H69.5942ZM69.3771 31.5112C69.497 31.5112 69.5942 31.6084 69.5942 31.7283H66.1654C66.1654 33.5021 67.6033 34.94 69.3771 34.94V31.5112ZM81.3549 31.5112H69.3771V34.94H81.3549V31.5112ZM81.1377 31.7283C81.1377 31.6084 81.235 31.5112 81.3549 31.5112V34.94C83.1286 34.94 84.5665 33.5021 84.5665 31.7283H81.1377ZM81.1377 19.7505V31.7283H84.5665V19.7505H81.1377ZM81.3549 19.9677C81.235 19.9677 81.1377 19.8704 81.1377 19.7505H84.5665C84.5665 17.9768 83.1286 16.5389 81.3549 16.5389V19.9677ZM69.3771 19.9677H81.3549V16.5389H69.3771V19.9677ZM85.846 16.5389C84.0723 16.5389 82.6344 17.9768 82.6344 19.7505H86.0632C86.0632 19.8704 85.9659 19.9677 85.846 19.9677V16.5389ZM97.8238 16.5389H85.846V19.9677H97.8238V16.5389ZM101.035 19.7505C101.035 17.9768 99.5976 16.5389 97.8238 16.5389V19.9677C97.7039 19.9677 97.6067 19.8704 97.6067 19.7505H101.035ZM101.035 31.7283V19.7505H97.6067V31.7283H101.035ZM97.8238 34.94C99.5976 34.94 101.035 33.5021 101.035 31.7283H97.6067C97.6067 31.6084 97.7039 31.5112 97.8238 31.5112V34.94ZM85.846 34.94H97.8238V31.5112H85.846V34.94ZM82.6344 31.7283C82.6344 33.5021 84.0723 34.94 85.846 34.94V31.5112C85.9659 31.5112 86.0632 31.6084 86.0632 31.7283H82.6344ZM82.6344 19.7505V31.7283H86.0632V19.7505H82.6344ZM102.532 19.7505C102.532 19.8704 102.435 19.9677 102.315 19.9677V16.5389C100.541 16.5389 99.1033 17.9768 99.1033 19.7505H102.532ZM102.532 31.7283V19.7505H99.1033V31.7283H102.532ZM102.315 31.5112C102.435 31.5112 102.532 31.6084 102.532 31.7283H99.1033C99.1033 33.5021 100.541 34.94 102.315 34.94V31.5112ZM114.293 31.5112H102.315V34.94H114.293V31.5112ZM114.076 31.7283C114.076 31.6084 114.173 31.5112 114.293 31.5112V34.94C116.067 34.94 117.504 33.5021 117.504 31.7283H114.076ZM114.076 19.7505V31.7283H117.504V19.7505H114.076ZM114.293 19.9677C114.173 19.9677 114.076 19.8704 114.076 19.7505H117.504C117.504 17.9768 116.067 16.5389 114.293 16.5389V19.9677ZM102.315 19.9677H114.293V16.5389H102.315V19.9677Z" fill="url(#paint1_linear_448_3113)" mask="url(#path-1-outside-1_448_3113)"/>
</g>
<defs>
<filter id="filter0_d_448_3113" x="0.285156" y="0.0693359" width="117.219" height="102.463" filterUnits="userSpaceOnUse" color-interpolation-filters="sRGB">
<feFlood flood-opacity="0" result="BackgroundImageFix"/>
<feColorMatrix in="SourceAlpha" type="matrix" values="0 0 0 0 0 0 0 0 0 0 0 0 0 0 0 0 0 0 127 0" result="hardAlpha"/>
<feOffset dy="1.71441"/>
<feComposite in2="hardAlpha" operator="out"/>
<feColorMatrix type="matrix" values="0 0 0 0 0.421819 0 0 0 0 0.25969 0 0 0 0 0.753445 0 0 0 1 0"/>
<feBlend mode="normal" in2="BackgroundImageFix" result="effect1_dropShadow_448_3113"/>
<feBlend mode="normal" in="SourceGraphic" in2="effect1_dropShadow_448_3113" result="shape"/>
</filter>
<linearGradient id="paint0_linear_448_3113" x1="58.8949" y1="1.78369" x2="58.8949" y2="99.1036" gradientUnits="userSpaceOnUse">
<stop stop-color="#E0CFFF"/>
<stop offset="1" stop-color="#C1A6FA"/>
</linearGradient>
<linearGradient id="paint1_linear_448_3113" x1="58.8949" y1="1.78369" x2="58.8949" y2="99.1036" gradientUnits="userSpaceOnUse">
<stop stop-color="#AA8FE3"/>
<stop offset="1" stop-color="#A58CD8"/>
</linearGradient>
</defs>
</svg>
