<svg width="118" height="104" viewBox="0 0 118 104" fill="none" xmlns="http://www.w3.org/2000/svg">
<g filter="url(#filter0_d_448_3138)">
<mask id="path-1-outside-1_448_3138" maskUnits="userSpaceOnUse" x="0" y="0.280884" width="118" height="102" fill="black">
<rect fill="white" y="0.280884" width="118" height="102"/>
<path fillRule="evenodd" clipRule="evenodd" d="M19.9663 2.28092C19.1394 2.28092 18.4691 2.95125 18.4691 3.77815V15.756C18.4691 16.5829 19.1394 17.2532 19.9663 17.2532H31.9442C32.7711 17.2532 33.4414 16.5829 33.4414 15.756V3.77815C33.4414 2.95125 32.7711 2.28092 31.9442 2.28092H19.9663ZM85.846 2.28092C85.0191 2.28092 84.3487 2.95125 84.3487 3.77815V15.756C84.3487 16.5829 85.0191 17.2532 85.846 17.2532H97.8238C98.6507 17.2532 99.321 16.5829 99.321 15.756V3.77815C99.321 2.95125 98.6507 2.28092 97.8238 2.28092H85.846ZM2.00016 20.2477C2.00016 19.4208 2.67049 18.7505 3.49739 18.7505H15.4752C16.3021 18.7505 16.9725 19.4208 16.9725 20.2477V32.2255C16.9725 33.0524 16.3021 33.7228 15.4752 33.7228H3.49739C2.6705 33.7228 2.00016 33.0524 2.00016 32.2255V20.2477ZM3.49739 35.2201C2.67049 35.2201 2.00016 35.8905 2.00016 36.7174V48.6952C2.00016 49.5221 2.6705 50.1924 3.49739 50.1924H15.4752C16.3021 50.1924 16.9725 49.5221 16.9725 48.6952V36.7174C16.9725 35.8905 16.3021 35.2201 15.4752 35.2201H3.49739ZM18.4691 20.2477C18.4691 19.4208 19.1394 18.7505 19.9663 18.7505H31.9442C32.7711 18.7505 33.4414 19.4208 33.4414 20.2477V32.2255C33.4414 33.0524 32.7711 33.7228 31.9442 33.7228H19.9663C19.1394 33.7228 18.4691 33.0524 18.4691 32.2255V20.2477ZM19.9663 35.2201C19.1394 35.2201 18.4691 35.8905 18.4691 36.7174V48.6952C18.4691 49.5221 19.1394 50.1924 19.9663 50.1924H31.9442C32.7711 50.1924 33.4414 49.5221 33.4414 48.6952V36.7174C33.4414 35.8905 32.7711 35.2201 31.9442 35.2201H19.9663ZM18.4691 53.1869C18.4691 52.36 19.1394 51.6897 19.9663 51.6897H31.9442C32.7711 51.6897 33.4414 52.36 33.4414 53.1869V65.1647C33.4414 65.9916 32.7711 66.662 31.9442 66.662H19.9663C19.1394 66.662 18.4691 65.9916 18.4691 65.1647V53.1869ZM36.4353 18.7505C35.6084 18.7505 34.938 19.4208 34.938 20.2477V32.2255C34.938 33.0524 35.6084 33.7228 36.4353 33.7228H48.4131C49.24 33.7228 49.9103 33.0524 49.9103 32.2255V20.2477C49.9103 19.4208 49.24 18.7505 48.4131 18.7505H36.4353ZM34.938 36.7174C34.938 35.8905 35.6084 35.2201 36.4353 35.2201H48.4131C49.24 35.2201 49.9103 35.8905 49.9103 36.7174V48.6952C49.9103 49.5221 49.24 50.1924 48.4131 50.1924H36.4353C35.6084 50.1924 34.938 49.5221 34.938 48.6952V36.7174ZM36.4353 51.6897C35.6084 51.6897 34.938 52.36 34.938 53.1869V65.1647C34.938 65.9916 35.6084 66.662 36.4353 66.662H48.4131C49.24 66.662 49.9103 65.9916 49.9103 65.1647V53.1869C49.9103 52.36 49.24 51.6897 48.4131 51.6897H36.4353ZM34.938 69.6562C34.938 68.8293 35.6084 68.159 36.4353 68.159H48.4131C49.24 68.159 49.9103 68.8293 49.9103 69.6562V81.634C49.9103 82.4609 49.24 83.1313 48.4131 83.1313H36.4353C35.6084 83.1313 34.938 82.4609 34.938 81.634V69.6562ZM52.9061 35.2201C52.0792 35.2201 51.4089 35.8905 51.4089 36.7174V48.6952C51.4089 49.5221 52.0792 50.1924 52.9061 50.1924H64.884C65.7109 50.1924 66.3812 49.5221 66.3812 48.6952V36.7174C66.3812 35.8905 65.7109 35.2201 64.884 35.2201H52.9061ZM51.4089 53.1869C51.4089 52.36 52.0792 51.6897 52.9061 51.6897H64.884C65.7109 51.6897 66.3812 52.36 66.3812 53.1869V65.1647C66.3812 65.9916 65.7109 66.662 64.884 66.662H52.9061C52.0792 66.662 51.4089 65.9916 51.4089 65.1647V53.1869ZM52.9061 68.159C52.0792 68.159 51.4089 68.8293 51.4089 69.6562V81.634C51.4089 82.4609 52.0792 83.1313 52.9061 83.1313H64.884C65.7109 83.1313 66.3812 82.4609 66.3812 81.634V69.6562C66.3812 68.8293 65.7109 68.159 64.884 68.159H52.9061ZM51.4089 86.1259C51.4089 85.299 52.0792 84.6286 52.9061 84.6286H64.884C65.7109 84.6286 66.3812 85.299 66.3812 86.1259V98.1037C66.3812 98.9306 65.7109 99.6009 64.884 99.6009H52.9061C52.0792 99.6009 51.4089 98.9306 51.4089 98.1037V86.1259ZM69.377 35.2201C68.5501 35.2201 67.8798 35.8905 67.8798 36.7174V48.6952C67.8798 49.5221 68.5501 50.1924 69.377 50.1924H81.3549C82.1818 50.1924 82.8521 49.5221 82.8521 48.6952V36.7174C82.8521 35.8905 82.1818 35.2201 81.3549 35.2201H69.377ZM67.8798 53.1869C67.8798 52.36 68.5501 51.6897 69.377 51.6897H81.3549C82.1818 51.6897 82.8521 52.36 82.8521 53.1869V65.1647C82.8521 65.9916 82.1818 66.662 81.3549 66.662H69.377C68.5501 66.662 67.8798 65.9916 67.8798 65.1647V53.1869ZM69.377 68.159C68.5501 68.159 67.8798 68.8293 67.8798 69.6562V81.634C67.8798 82.4609 68.5501 83.1313 69.377 83.1313H81.3549C82.1818 83.1313 82.8521 82.4609 82.8521 81.634V69.6562C82.8521 68.8293 82.1818 68.159 81.3549 68.159H69.377ZM84.3487 36.7174C84.3487 35.8905 85.0191 35.2201 85.846 35.2201H97.8238C98.6507 35.2201 99.321 35.8905 99.321 36.7174V48.6952C99.321 49.5221 98.6507 50.1924 97.8238 50.1924H85.846C85.0191 50.1924 84.3487 49.5221 84.3487 48.6952V36.7174ZM85.846 51.6897C85.0191 51.6897 84.3487 52.36 84.3487 53.1869V65.1647C84.3487 65.9916 85.0191 66.662 85.846 66.662H97.8238C98.6507 66.662 99.321 65.9916 99.321 65.1647V53.1869C99.321 52.36 98.6507 51.6897 97.8238 51.6897H85.846ZM100.818 36.7174C100.818 35.8905 101.488 35.2201 102.315 35.2201H114.293C115.12 35.2201 115.79 35.8905 115.79 36.7174V48.6952C115.79 49.5221 115.12 50.1924 114.293 50.1924H102.315C101.488 50.1924 100.818 49.5221 100.818 48.6952V36.7174ZM69.377 18.7505C68.5501 18.7505 67.8798 19.4208 67.8798 20.2477V32.2255C67.8798 33.0524 68.5501 33.7228 69.377 33.7228H81.3549C82.1818 33.7228 82.8521 33.0524 82.8521 32.2255V20.2477C82.8521 19.4208 82.1818 18.7505 81.3549 18.7505H69.377ZM84.3487 20.2477C84.3487 19.4208 85.0191 18.7505 85.846 18.7505H97.8238C98.6507 18.7505 99.321 19.4208 99.321 20.2477V32.2255C99.321 33.0524 98.6507 33.7228 97.8238 33.7228H85.846C85.0191 33.7228 84.3487 33.0524 84.3487 32.2255V20.2477ZM102.315 18.7505C101.488 18.7505 100.818 19.4208 100.818 20.2477V32.2255C100.818 33.0524 101.488 33.7228 102.315 33.7228H114.293C115.12 33.7228 115.79 33.0524 115.79 32.2255V20.2477C115.79 19.4208 115.12 18.7505 114.293 18.7505H102.315Z"/>
</mask>
<path fillRule="evenodd" clipRule="evenodd" d="M19.9663 2.28092C19.1394 2.28092 18.4691 2.95125 18.4691 3.77815V15.756C18.4691 16.5829 19.1394 17.2532 19.9663 17.2532H31.9442C32.7711 17.2532 33.4414 16.5829 33.4414 15.756V3.77815C33.4414 2.95125 32.7711 2.28092 31.9442 2.28092H19.9663ZM85.846 2.28092C85.0191 2.28092 84.3487 2.95125 84.3487 3.77815V15.756C84.3487 16.5829 85.0191 17.2532 85.846 17.2532H97.8238C98.6507 17.2532 99.321 16.5829 99.321 15.756V3.77815C99.321 2.95125 98.6507 2.28092 97.8238 2.28092H85.846ZM2.00016 20.2477C2.00016 19.4208 2.67049 18.7505 3.49739 18.7505H15.4752C16.3021 18.7505 16.9725 19.4208 16.9725 20.2477V32.2255C16.9725 33.0524 16.3021 33.7228 15.4752 33.7228H3.49739C2.6705 33.7228 2.00016 33.0524 2.00016 32.2255V20.2477ZM3.49739 35.2201C2.67049 35.2201 2.00016 35.8905 2.00016 36.7174V48.6952C2.00016 49.5221 2.6705 50.1924 3.49739 50.1924H15.4752C16.3021 50.1924 16.9725 49.5221 16.9725 48.6952V36.7174C16.9725 35.8905 16.3021 35.2201 15.4752 35.2201H3.49739ZM18.4691 20.2477C18.4691 19.4208 19.1394 18.7505 19.9663 18.7505H31.9442C32.7711 18.7505 33.4414 19.4208 33.4414 20.2477V32.2255C33.4414 33.0524 32.7711 33.7228 31.9442 33.7228H19.9663C19.1394 33.7228 18.4691 33.0524 18.4691 32.2255V20.2477ZM19.9663 35.2201C19.1394 35.2201 18.4691 35.8905 18.4691 36.7174V48.6952C18.4691 49.5221 19.1394 50.1924 19.9663 50.1924H31.9442C32.7711 50.1924 33.4414 49.5221 33.4414 48.6952V36.7174C33.4414 35.8905 32.7711 35.2201 31.9442 35.2201H19.9663ZM18.4691 53.1869C18.4691 52.36 19.1394 51.6897 19.9663 51.6897H31.9442C32.7711 51.6897 33.4414 52.36 33.4414 53.1869V65.1647C33.4414 65.9916 32.7711 66.662 31.9442 66.662H19.9663C19.1394 66.662 18.4691 65.9916 18.4691 65.1647V53.1869ZM36.4353 18.7505C35.6084 18.7505 34.938 19.4208 34.938 20.2477V32.2255C34.938 33.0524 35.6084 33.7228 36.4353 33.7228H48.4131C49.24 33.7228 49.9103 33.0524 49.9103 32.2255V20.2477C49.9103 19.4208 49.24 18.7505 48.4131 18.7505H36.4353ZM34.938 36.7174C34.938 35.8905 35.6084 35.2201 36.4353 35.2201H48.4131C49.24 35.2201 49.9103 35.8905 49.9103 36.7174V48.6952C49.9103 49.5221 49.24 50.1924 48.4131 50.1924H36.4353C35.6084 50.1924 34.938 49.5221 34.938 48.6952V36.7174ZM36.4353 51.6897C35.6084 51.6897 34.938 52.36 34.938 53.1869V65.1647C34.938 65.9916 35.6084 66.662 36.4353 66.662H48.4131C49.24 66.662 49.9103 65.9916 49.9103 65.1647V53.1869C49.9103 52.36 49.24 51.6897 48.4131 51.6897H36.4353ZM34.938 69.6562C34.938 68.8293 35.6084 68.159 36.4353 68.159H48.4131C49.24 68.159 49.9103 68.8293 49.9103 69.6562V81.634C49.9103 82.4609 49.24 83.1313 48.4131 83.1313H36.4353C35.6084 83.1313 34.938 82.4609 34.938 81.634V69.6562ZM52.9061 35.2201C52.0792 35.2201 51.4089 35.8905 51.4089 36.7174V48.6952C51.4089 49.5221 52.0792 50.1924 52.9061 50.1924H64.884C65.7109 50.1924 66.3812 49.5221 66.3812 48.6952V36.7174C66.3812 35.8905 65.7109 35.2201 64.884 35.2201H52.9061ZM51.4089 53.1869C51.4089 52.36 52.0792 51.6897 52.9061 51.6897H64.884C65.7109 51.6897 66.3812 52.36 66.3812 53.1869V65.1647C66.3812 65.9916 65.7109 66.662 64.884 66.662H52.9061C52.0792 66.662 51.4089 65.9916 51.4089 65.1647V53.1869ZM52.9061 68.159C52.0792 68.159 51.4089 68.8293 51.4089 69.6562V81.634C51.4089 82.4609 52.0792 83.1313 52.9061 83.1313H64.884C65.7109 83.1313 66.3812 82.4609 66.3812 81.634V69.6562C66.3812 68.8293 65.7109 68.159 64.884 68.159H52.9061ZM51.4089 86.1259C51.4089 85.299 52.0792 84.6286 52.9061 84.6286H64.884C65.7109 84.6286 66.3812 85.299 66.3812 86.1259V98.1037C66.3812 98.9306 65.7109 99.6009 64.884 99.6009H52.9061C52.0792 99.6009 51.4089 98.9306 51.4089 98.1037V86.1259ZM69.377 35.2201C68.5501 35.2201 67.8798 35.8905 67.8798 36.7174V48.6952C67.8798 49.5221 68.5501 50.1924 69.377 50.1924H81.3549C82.1818 50.1924 82.8521 49.5221 82.8521 48.6952V36.7174C82.8521 35.8905 82.1818 35.2201 81.3549 35.2201H69.377ZM67.8798 53.1869C67.8798 52.36 68.5501 51.6897 69.377 51.6897H81.3549C82.1818 51.6897 82.8521 52.36 82.8521 53.1869V65.1647C82.8521 65.9916 82.1818 66.662 81.3549 66.662H69.377C68.5501 66.662 67.8798 65.9916 67.8798 65.1647V53.1869ZM69.377 68.159C68.5501 68.159 67.8798 68.8293 67.8798 69.6562V81.634C67.8798 82.4609 68.5501 83.1313 69.377 83.1313H81.3549C82.1818 83.1313 82.8521 82.4609 82.8521 81.634V69.6562C82.8521 68.8293 82.1818 68.159 81.3549 68.159H69.377ZM84.3487 36.7174C84.3487 35.8905 85.0191 35.2201 85.846 35.2201H97.8238C98.6507 35.2201 99.321 35.8905 99.321 36.7174V48.6952C99.321 49.5221 98.6507 50.1924 97.8238 50.1924H85.846C85.0191 50.1924 84.3487 49.5221 84.3487 48.6952V36.7174ZM85.846 51.6897C85.0191 51.6897 84.3487 52.36 84.3487 53.1869V65.1647C84.3487 65.9916 85.0191 66.662 85.846 66.662H97.8238C98.6507 66.662 99.321 65.9916 99.321 65.1647V53.1869C99.321 52.36 98.6507 51.6897 97.8238 51.6897H85.846ZM100.818 36.7174C100.818 35.8905 101.488 35.2201 102.315 35.2201H114.293C115.12 35.2201 115.79 35.8905 115.79 36.7174V48.6952C115.79 49.5221 115.12 50.1924 114.293 50.1924H102.315C101.488 50.1924 100.818 49.5221 100.818 48.6952V36.7174ZM69.377 18.7505C68.5501 18.7505 67.8798 19.4208 67.8798 20.2477V32.2255C67.8798 33.0524 68.5501 33.7228 69.377 33.7228H81.3549C82.1818 33.7228 82.8521 33.0524 82.8521 32.2255V20.2477C82.8521 19.4208 82.1818 18.7505 81.3549 18.7505H69.377ZM84.3487 20.2477C84.3487 19.4208 85.0191 18.7505 85.846 18.7505H97.8238C98.6507 18.7505 99.321 19.4208 99.321 20.2477V32.2255C99.321 33.0524 98.6507 33.7228 97.8238 33.7228H85.846C85.0191 33.7228 84.3487 33.0524 84.3487 32.2255V20.2477ZM102.315 18.7505C101.488 18.7505 100.818 19.4208 100.818 20.2477V32.2255C100.818 33.0524 101.488 33.7228 102.315 33.7228H114.293C115.12 33.7228 115.79 33.0524 115.79 32.2255V20.2477C115.79 19.4208 115.12 18.7505 114.293 18.7505H102.315Z" fill="url(#paint0_linear_448_3138)"/>
<path d="M20.1835 3.77815C20.1835 3.89809 20.0863 3.99532 19.9663 3.99532V0.566511C18.1926 0.566511 16.7547 2.00441 16.7547 3.77815H20.1835ZM20.1835 15.756V3.77815H16.7547V15.756H20.1835ZM19.9663 15.5388C20.0863 15.5388 20.1835 15.636 20.1835 15.756H16.7547C16.7547 17.5297 18.1926 18.9676 19.9663 18.9676V15.5388ZM31.9442 15.5388H19.9663V18.9676H31.9442V15.5388ZM31.727 15.756C31.727 15.636 31.8242 15.5388 31.9442 15.5388V18.9676C33.7179 18.9676 35.1558 17.5297 35.1558 15.756H31.727ZM31.727 3.77815V15.756H35.1558V3.77815H31.727ZM31.9442 3.99532C31.8242 3.99532 31.727 3.89809 31.727 3.77815H35.1558C35.1558 2.00441 33.7179 0.566511 31.9442 0.566511V3.99532ZM19.9663 3.99532H31.9442V0.566511H19.9663V3.99532ZM86.0631 3.77815C86.0631 3.89809 85.9659 3.99532 85.846 3.99532V0.566511C84.0722 0.566511 82.6343 2.00441 82.6343 3.77815H86.0631ZM86.0631 15.756V3.77815H82.6343V15.756H86.0631ZM85.846 15.5388C85.9659 15.5388 86.0631 15.636 86.0631 15.756H82.6343C82.6343 17.5297 84.0722 18.9676 85.846 18.9676V15.5388ZM97.8238 15.5388H85.846V18.9676H97.8238V15.5388ZM97.6066 15.756C97.6066 15.636 97.7039 15.5388 97.8238 15.5388V18.9676C99.5975 18.9676 101.035 17.5297 101.035 15.756H97.6066ZM97.6066 3.77815V15.756H101.035V3.77815H97.6066ZM97.8238 3.99532C97.7039 3.99532 97.6066 3.89809 97.6066 3.77815H101.035C101.035 2.00441 99.5975 0.566511 97.8238 0.566511V3.99532ZM85.846 3.99532H97.8238V0.566511H85.846V3.99532ZM3.49739 17.0361C1.72365 17.0361 0.285756 18.474 0.285756 20.2477H3.71457C3.71457 20.3676 3.61734 20.4649 3.49739 20.4649V17.0361ZM15.4752 17.0361H3.49739V20.4649H15.4752V17.0361ZM18.6869 20.2477C18.6869 18.4739 17.249 17.0361 15.4752 17.0361V20.4649C15.3553 20.4649 15.2581 20.3676 15.2581 20.2477H18.6869ZM18.6869 32.2255V20.2477H15.2581V32.2255H18.6869ZM15.4752 35.4372C17.249 35.4372 18.6869 33.9993 18.6869 32.2255H15.2581C15.2581 32.1056 15.3553 32.0084 15.4752 32.0084V35.4372ZM3.49739 35.4372H15.4752V32.0084H3.49739V35.4372ZM0.285756 32.2255C0.285756 33.9993 1.72366 35.4372 3.49739 35.4372V32.0084C3.61733 32.0084 3.71457 32.1056 3.71457 32.2255H0.285756ZM0.285756 20.2477V32.2255H3.71457V20.2477H0.285756ZM3.71457 36.7174C3.71457 36.8373 3.61734 36.9345 3.49739 36.9345V33.5057C1.72365 33.5057 0.285756 34.9436 0.285756 36.7174H3.71457ZM3.71457 48.6952V36.7174H0.285756V48.6952H3.71457ZM3.49739 48.478C3.61734 48.478 3.71457 48.5753 3.71457 48.6952H0.285756C0.285756 50.4689 1.72365 51.9068 3.49739 51.9068V48.478ZM15.4752 48.478H3.49739V51.9068H15.4752V48.478ZM15.2581 48.6952C15.2581 48.5753 15.3553 48.478 15.4752 48.478V51.9068C17.249 51.9068 18.6869 50.4689 18.6869 48.6952H15.2581ZM15.2581 36.7174V48.6952H18.6869V36.7174H15.2581ZM15.4752 36.9345C15.3553 36.9345 15.2581 36.8373 15.2581 36.7174H18.6869C18.6869 34.9436 17.249 33.5057 15.4752 33.5057V36.9345ZM3.49739 36.9345H15.4752V33.5057H3.49739V36.9345ZM19.9663 17.0361C18.1926 17.0361 16.7547 18.474 16.7547 20.2477H20.1835C20.1835 20.3676 20.0863 20.4649 19.9663 20.4649V17.0361ZM31.9442 17.0361H19.9663V20.4649H31.9442V17.0361ZM35.1558 20.2477C35.1558 18.4739 33.7179 17.0361 31.9442 17.0361V20.4649C31.8242 20.4649 31.727 20.3676 31.727 20.2477H35.1558ZM35.1558 32.2255V20.2477H31.727V32.2255H35.1558ZM31.9442 35.4372C33.7179 35.4372 35.1558 33.9993 35.1558 32.2255H31.727C31.727 32.1056 31.8242 32.0084 31.9442 32.0084V35.4372ZM19.9663 35.4372H31.9442V32.0084H19.9663V35.4372ZM16.7547 32.2255C16.7547 33.9993 18.1926 35.4372 19.9663 35.4372V32.0084C20.0863 32.0084 20.1835 32.1056 20.1835 32.2255H16.7547ZM16.7547 20.2477V32.2255H20.1835V20.2477H16.7547ZM20.1835 36.7174C20.1835 36.8373 20.0863 36.9345 19.9663 36.9345V33.5057C18.1926 33.5057 16.7547 34.9436 16.7547 36.7174H20.1835ZM20.1835 48.6952V36.7174H16.7547V48.6952H20.1835ZM19.9663 48.478C20.0863 48.478 20.1835 48.5752 20.1835 48.6952H16.7547C16.7547 50.4689 18.1926 51.9068 19.9663 51.9068V48.478ZM31.9442 48.478H19.9663V51.9068H31.9442V48.478ZM31.727 48.6952C31.727 48.5752 31.8242 48.478 31.9442 48.478V51.9068C33.7179 51.9068 35.1558 50.4689 35.1558 48.6952H31.727ZM31.727 36.7174V48.6952H35.1558V36.7174H31.727ZM31.9442 36.9345C31.8242 36.9345 31.727 36.8373 31.727 36.7174H35.1558C35.1558 34.9436 33.7179 33.5057 31.9442 33.5057V36.9345ZM19.9663 36.9345H31.9442V33.5057H19.9663V36.9345ZM19.9663 49.9753C18.1926 49.9753 16.7547 51.4132 16.7547 53.1869H20.1835C20.1835 53.3068 20.0863 53.4041 19.9663 53.4041V49.9753ZM31.9442 49.9753H19.9663V53.4041H31.9442V49.9753ZM35.1558 53.1869C35.1558 51.4132 33.7179 49.9753 31.9442 49.9753V53.4041C31.8242 53.4041 31.727 53.3068 31.727 53.1869H35.1558ZM35.1558 65.1647V53.1869H31.727V65.1647H35.1558ZM31.9442 68.3764C33.7179 68.3764 35.1558 66.9385 35.1558 65.1647H31.727C31.727 65.0448 31.8242 64.9476 31.9442 64.9476V68.3764ZM19.9663 68.3764H31.9442V64.9476H19.9663V68.3764ZM16.7547 65.1647C16.7547 66.9385 18.1926 68.3764 19.9663 68.3764V64.9476C20.0863 64.9476 20.1835 65.0448 20.1835 65.1647H16.7547ZM16.7547 53.1869V65.1647H20.1835V53.1869H16.7547ZM36.6524 20.2477C36.6524 20.3676 36.5552 20.4649 36.4353 20.4649V17.0361C34.6615 17.0361 33.2236 18.474 33.2236 20.2477H36.6524ZM36.6524 32.2255V20.2477H33.2236V32.2255H36.6524ZM36.4353 32.0084C36.5552 32.0084 36.6524 32.1056 36.6524 32.2255H33.2236C33.2236 33.9993 34.6615 35.4372 36.4353 35.4372V32.0084ZM48.4131 32.0084H36.4353V35.4372H48.4131V32.0084ZM48.1959 32.2255C48.1959 32.1056 48.2932 32.0084 48.4131 32.0084V35.4372C50.1868 35.4372 51.6247 33.9993 51.6247 32.2255H48.1959ZM48.1959 20.2477V32.2255H51.6247V20.2477H48.1959ZM48.4131 20.4649C48.2932 20.4649 48.1959 20.3676 48.1959 20.2477H51.6247C51.6247 18.4739 50.1868 17.0361 48.4131 17.0361V20.4649ZM36.4353 20.4649H48.4131V17.0361H36.4353V20.4649ZM36.4353 33.5057C34.6615 33.5057 33.2236 34.9436 33.2236 36.7174H36.6524C36.6524 36.8373 36.5552 36.9345 36.4353 36.9345V33.5057ZM48.4131 33.5057H36.4353V36.9345H48.4131V33.5057ZM51.6247 36.7174C51.6247 34.9436 50.1868 33.5057 48.4131 33.5057V36.9345C48.2932 36.9345 48.1959 36.8373 48.1959 36.7174H51.6247ZM51.6247 48.6952V36.7174H48.1959V48.6952H51.6247ZM48.4131 51.9068C50.1868 51.9068 51.6247 50.4689 51.6247 48.6952H48.1959C48.1959 48.5752 48.2932 48.478 48.4131 48.478V51.9068ZM36.4353 51.9068H48.4131V48.478H36.4353V51.9068ZM33.2236 48.6952C33.2236 50.4689 34.6615 51.9068 36.4353 51.9068V48.478C36.5552 48.478 36.6524 48.5752 36.6524 48.6952H33.2236ZM33.2236 36.7174V48.6952H36.6524V36.7174H33.2236ZM36.6524 53.1869C36.6524 53.3068 36.5552 53.4041 36.4353 53.4041V49.9753C34.6615 49.9753 33.2236 51.4132 33.2236 53.1869H36.6524ZM36.6524 65.1647V53.1869H33.2236V65.1647H36.6524ZM36.4353 64.9476C36.5552 64.9476 36.6524 65.0448 36.6524 65.1647H33.2236C33.2236 66.9385 34.6615 68.3764 36.4353 68.3764V64.9476ZM48.4131 64.9476H36.4353V68.3764H48.4131V64.9476ZM48.1959 65.1647C48.1959 65.0448 48.2932 64.9476 48.4131 64.9476V68.3764C50.1868 68.3764 51.6247 66.9385 51.6247 65.1647H48.1959ZM48.1959 53.1869V65.1647H51.6247V53.1869H48.1959ZM48.4131 53.4041C48.2932 53.4041 48.1959 53.3068 48.1959 53.1869H51.6247C51.6247 51.4132 50.1868 49.9753 48.4131 49.9753V53.4041ZM36.4353 53.4041H48.4131V49.9753H36.4353V53.4041ZM36.4353 66.4446C34.6615 66.4446 33.2236 67.8825 33.2236 69.6562H36.6524C36.6524 69.7761 36.5552 69.8734 36.4353 69.8734V66.4446ZM48.4131 66.4446H36.4353V69.8734H48.4131V66.4446ZM51.6247 69.6562C51.6247 67.8825 50.1868 66.4446 48.4131 66.4446V69.8734C48.2932 69.8734 48.1959 69.7761 48.1959 69.6562H51.6247ZM51.6247 81.634V69.6562H48.1959V81.634H51.6247ZM48.4131 84.8457C50.1868 84.8457 51.6247 83.4078 51.6247 81.634H48.1959C48.1959 81.5141 48.2932 81.4169 48.4131 81.4169V84.8457ZM36.4353 84.8457H48.4131V81.4169H36.4353V84.8457ZM33.2236 81.634C33.2236 83.4078 34.6615 84.8457 36.4353 84.8457V81.4169C36.5552 81.4169 36.6524 81.5141 36.6524 81.634H33.2236ZM33.2236 69.6562V81.634H36.6524V69.6562H33.2236ZM53.1233 36.7174C53.1233 36.8373 53.0261 36.9345 52.9061 36.9345V33.5057C51.1324 33.5057 49.6945 34.9436 49.6945 36.7174H53.1233ZM53.1233 48.6952V36.7174H49.6945V48.6952H53.1233ZM52.9061 48.478C53.0261 48.478 53.1233 48.5752 53.1233 48.6952H49.6945C49.6945 50.4689 51.1324 51.9068 52.9061 51.9068V48.478ZM64.884 48.478H52.9061V51.9068H64.884V48.478ZM64.6668 48.6952C64.6668 48.5752 64.764 48.478 64.884 48.478V51.9068C66.6577 51.9068 68.0956 50.4689 68.0956 48.6952H64.6668ZM64.6668 36.7174V48.6952H68.0956V36.7174H64.6668ZM64.884 36.9345C64.764 36.9345 64.6668 36.8373 64.6668 36.7174H68.0956C68.0956 34.9436 66.6577 33.5057 64.884 33.5057V36.9345ZM52.9061 36.9345H64.884V33.5057H52.9061V36.9345ZM52.9061 49.9753C51.1324 49.9753 49.6945 51.4132 49.6945 53.1869H53.1233C53.1233 53.3068 53.0261 53.4041 52.9061 53.4041V49.9753ZM64.884 49.9753H52.9061V53.4041H64.884V49.9753ZM68.0956 53.1869C68.0956 51.4132 66.6577 49.9753 64.884 49.9753V53.4041C64.764 53.4041 64.6668 53.3068 64.6668 53.1869H68.0956ZM68.0956 65.1647V53.1869H64.6668V65.1647H68.0956ZM64.884 68.3764C66.6577 68.3764 68.0956 66.9385 68.0956 65.1647H64.6668C64.6668 65.0448 64.764 64.9476 64.884 64.9476V68.3764ZM52.9061 68.3764H64.884V64.9476H52.9061V68.3764ZM49.6945 65.1647C49.6945 66.9385 51.1324 68.3764 52.9061 68.3764V64.9476C53.0261 64.9476 53.1233 65.0448 53.1233 65.1647H49.6945ZM49.6945 53.1869V65.1647H53.1233V53.1869H49.6945ZM53.1233 69.6562C53.1233 69.7761 53.0261 69.8734 52.9061 69.8734V66.4446C51.1324 66.4446 49.6945 67.8825 49.6945 69.6562H53.1233ZM53.1233 81.634V69.6562H49.6945V81.634H53.1233ZM52.9061 81.4169C53.0261 81.4169 53.1233 81.5141 53.1233 81.634H49.6945C49.6945 83.4078 51.1324 84.8457 52.9061 84.8457V81.4169ZM64.884 81.4169H52.9061V84.8457H64.884V81.4169ZM64.6668 81.634C64.6668 81.5141 64.764 81.4169 64.884 81.4169V84.8457C66.6577 84.8457 68.0956 83.4078 68.0956 81.634H64.6668ZM64.6668 69.6562V81.634H68.0956V69.6562H64.6668ZM64.884 69.8734C64.764 69.8734 64.6668 69.7761 64.6668 69.6562H68.0956C68.0956 67.8825 66.6577 66.4446 64.884 66.4446V69.8734ZM52.9061 69.8734H64.884V66.4446H52.9061V69.8734ZM52.9061 82.9142C51.1324 82.9142 49.6945 84.3521 49.6945 86.1259H53.1233C53.1233 86.2458 53.0261 86.343 52.9061 86.343V82.9142ZM64.884 82.9142H52.9061V86.343H64.884V82.9142ZM68.0956 86.1259C68.0956 84.3521 66.6577 82.9142 64.884 82.9142V86.343C64.764 86.343 64.6668 86.2458 64.6668 86.1259H68.0956ZM68.0956 98.1037V86.1259H64.6668V98.1037H68.0956ZM64.884 101.315C66.6577 101.315 68.0956 99.8774 68.0956 98.1037H64.6668C64.6668 97.9838 64.764 97.8865 64.884 97.8865V101.315ZM52.9061 101.315H64.884V97.8865H52.9061V101.315ZM49.6945 98.1037C49.6945 99.8774 51.1324 101.315 52.9061 101.315V97.8865C53.0261 97.8865 53.1233 97.9838 53.1233 98.1037H49.6945ZM49.6945 86.1259V98.1037H53.1233V86.1259H49.6945ZM69.5942 36.7174C69.5942 36.8373 69.497 36.9345 69.377 36.9345V33.5057C67.6033 33.5057 66.1654 34.9436 66.1654 36.7174H69.5942ZM69.5942 48.6952V36.7174H66.1654V48.6952H69.5942ZM69.377 48.478C69.497 48.478 69.5942 48.5752 69.5942 48.6952H66.1654C66.1654 50.4689 67.6033 51.9068 69.377 51.9068V48.478ZM81.3549 48.478H69.377V51.9068H81.3549V48.478ZM81.1377 48.6952C81.1377 48.5752 81.2349 48.478 81.3549 48.478V51.9068C83.1286 51.9068 84.5665 50.4689 84.5665 48.6952H81.1377ZM81.1377 36.7174V48.6952H84.5665V36.7174H81.1377ZM81.3549 36.9345C81.2349 36.9345 81.1377 36.8373 81.1377 36.7174H84.5665C84.5665 34.9436 83.1286 33.5057 81.3549 33.5057V36.9345ZM69.377 36.9345H81.3549V33.5057H69.377V36.9345ZM69.377 49.9753C67.6033 49.9753 66.1654 51.4132 66.1654 53.1869H69.5942C69.5942 53.3068 69.497 53.4041 69.377 53.4041V49.9753ZM81.3549 49.9753H69.377V53.4041H81.3549V49.9753ZM84.5665 53.1869C84.5665 51.4132 83.1286 49.9753 81.3549 49.9753V53.4041C81.2349 53.4041 81.1377 53.3068 81.1377 53.1869H84.5665ZM84.5665 65.1647V53.1869H81.1377V65.1647H84.5665ZM81.3549 68.3764C83.1286 68.3764 84.5665 66.9385 84.5665 65.1647H81.1377C81.1377 65.0448 81.2349 64.9476 81.3549 64.9476V68.3764ZM69.377 68.3764H81.3549V64.9476H69.377V68.3764ZM66.1654 65.1647C66.1654 66.9385 67.6033 68.3764 69.377 68.3764V64.9476C69.497 64.9476 69.5942 65.0448 69.5942 65.1647H66.1654ZM66.1654 53.1869V65.1647H69.5942V53.1869H66.1654ZM69.5942 69.6562C69.5942 69.7761 69.497 69.8734 69.377 69.8734V66.4446C67.6033 66.4446 66.1654 67.8825 66.1654 69.6562H69.5942ZM69.5942 81.634V69.6562H66.1654V81.634H69.5942ZM69.377 81.4169C69.497 81.4169 69.5942 81.5141 69.5942 81.634H66.1654C66.1654 83.4078 67.6033 84.8457 69.377 84.8457V81.4169ZM81.3549 81.4169H69.377V84.8457H81.3549V81.4169ZM81.1377 81.634C81.1377 81.5141 81.2349 81.4169 81.3549 81.4169V84.8457C83.1286 84.8457 84.5665 83.4078 84.5665 81.634H81.1377ZM81.1377 69.6562V81.634H84.5665V69.6562H81.1377ZM81.3549 69.8734C81.2349 69.8734 81.1377 69.7761 81.1377 69.6562H84.5665C84.5665 67.8825 83.1286 66.4446 81.3549 66.4446V69.8734ZM69.377 69.8734H81.3549V66.4446H69.377V69.8734ZM85.846 33.5057C84.0722 33.5057 82.6343 34.9436 82.6343 36.7174H86.0631C86.0631 36.8373 85.9659 36.9345 85.846 36.9345V33.5057ZM97.8238 33.5057H85.846V36.9345H97.8238V33.5057ZM101.035 36.7174C101.035 34.9436 99.5975 33.5057 97.8238 33.5057V36.9345C97.7039 36.9345 97.6066 36.8373 97.6066 36.7174H101.035ZM101.035 48.6952V36.7174H97.6066V48.6952H101.035ZM97.8238 51.9068C99.5975 51.9068 101.035 50.4689 101.035 48.6952H97.6066C97.6066 48.5752 97.7039 48.478 97.8238 48.478V51.9068ZM85.846 51.9068H97.8238V48.478H85.846V51.9068ZM82.6343 48.6952C82.6343 50.4689 84.0722 51.9068 85.846 51.9068V48.478C85.9659 48.478 86.0631 48.5752 86.0631 48.6952H82.6343ZM82.6343 36.7174V48.6952H86.0631V36.7174H82.6343ZM86.0631 53.1869C86.0631 53.3068 85.9659 53.4041 85.846 53.4041V49.9753C84.0722 49.9753 82.6343 51.4132 82.6343 53.1869H86.0631ZM86.0631 65.1647V53.1869H82.6343V65.1647H86.0631ZM85.846 64.9476C85.9659 64.9476 86.0631 65.0448 86.0631 65.1647H82.6343C82.6343 66.9385 84.0722 68.3764 85.846 68.3764V64.9476ZM97.8238 64.9476H85.846V68.3764H97.8238V64.9476ZM97.6066 65.1647C97.6066 65.0448 97.7039 64.9476 97.8238 64.9476V68.3764C99.5975 68.3764 101.035 66.9385 101.035 65.1647H97.6066ZM97.6066 53.1869V65.1647H101.035V53.1869H97.6066ZM97.8238 53.4041C97.7039 53.4041 97.6066 53.3068 97.6066 53.1869H101.035C101.035 51.4132 99.5975 49.9753 97.8238 49.9753V53.4041ZM85.846 53.4041H97.8238V49.9753H85.846V53.4041ZM102.315 33.5057C100.541 33.5057 99.1033 34.9436 99.1033 36.7174H102.532C102.532 36.8373 102.435 36.9345 102.315 36.9345V33.5057ZM114.293 33.5057H102.315V36.9345H114.293V33.5057ZM117.504 36.7174C117.504 34.9436 116.066 33.5057 114.293 33.5057V36.9345C114.173 36.9345 114.076 36.8373 114.076 36.7174H117.504ZM117.504 48.6952V36.7174H114.076V48.6952H117.504ZM114.293 51.9068C116.066 51.9068 117.504 50.4689 117.504 48.6952H114.076C114.076 48.5752 114.173 48.478 114.293 48.478V51.9068ZM102.315 51.9068H114.293V48.478H102.315V51.9068ZM99.1033 48.6952C99.1033 50.4689 100.541 51.9068 102.315 51.9068V48.478C102.435 48.478 102.532 48.5752 102.532 48.6952H99.1033ZM99.1033 36.7174V48.6952H102.532V36.7174H99.1033ZM69.5942 20.2477C69.5942 20.3676 69.497 20.4649 69.377 20.4649V17.0361C67.6033 17.0361 66.1654 18.474 66.1654 20.2477H69.5942ZM69.5942 32.2255V20.2477H66.1654V32.2255H69.5942ZM69.377 32.0084C69.497 32.0084 69.5942 32.1056 69.5942 32.2255H66.1654C66.1654 33.9993 67.6033 35.4372 69.377 35.4372V32.0084ZM81.3549 32.0084H69.377V35.4372H81.3549V32.0084ZM81.1377 32.2255C81.1377 32.1056 81.2349 32.0084 81.3549 32.0084V35.4372C83.1286 35.4372 84.5665 33.9993 84.5665 32.2255H81.1377ZM81.1377 20.2477V32.2255H84.5665V20.2477H81.1377ZM81.3549 20.4649C81.2349 20.4649 81.1377 20.3676 81.1377 20.2477H84.5665C84.5665 18.4739 83.1286 17.0361 81.3549 17.0361V20.4649ZM69.377 20.4649H81.3549V17.0361H69.377V20.4649ZM85.846 17.0361C84.0722 17.0361 82.6343 18.474 82.6343 20.2477H86.0631C86.0631 20.3676 85.9659 20.4649 85.846 20.4649V17.0361ZM97.8238 17.0361H85.846V20.4649H97.8238V17.0361ZM101.035 20.2477C101.035 18.4739 99.5975 17.0361 97.8238 17.0361V20.4649C97.7039 20.4649 97.6066 20.3676 97.6066 20.2477H101.035ZM101.035 32.2255V20.2477H97.6066V32.2255H101.035ZM97.8238 35.4372C99.5975 35.4372 101.035 33.9993 101.035 32.2255H97.6066C97.6066 32.1056 97.7039 32.0084 97.8238 32.0084V35.4372ZM85.846 35.4372H97.8238V32.0084H85.846V35.4372ZM82.6343 32.2255C82.6343 33.9993 84.0722 35.4372 85.846 35.4372V32.0084C85.9659 32.0084 86.0631 32.1056 86.0631 32.2255H82.6343ZM82.6343 20.2477V32.2255H86.0631V20.2477H82.6343ZM102.532 20.2477C102.532 20.3676 102.435 20.4649 102.315 20.4649V17.0361C100.541 17.0361 99.1033 18.474 99.1033 20.2477H102.532ZM102.532 32.2255V20.2477H99.1033V32.2255H102.532ZM102.315 32.0084C102.435 32.0084 102.532 32.1056 102.532 32.2255H99.1033C99.1033 33.9993 100.541 35.4372 102.315 35.4372V32.0084ZM114.293 32.0084H102.315V35.4372H114.293V32.0084ZM114.076 32.2255C114.076 32.1056 114.173 32.0084 114.293 32.0084V35.4372C116.066 35.4372 117.504 33.9993 117.504 32.2255H114.076ZM114.076 20.2477V32.2255H117.504V20.2477H114.076ZM114.293 20.4649C114.173 20.4649 114.076 20.3676 114.076 20.2477H117.504C117.504 18.4739 116.066 17.0361 114.293 17.0361V20.4649ZM102.315 20.4649H114.293V17.0361H102.315V20.4649Z" fill="url(#paint1_linear_448_3138)" mask="url(#path-1-outside-1_448_3138)"/>
</g>
<g filter="url(#filter1_d_448_3138)">
<path fillRule="evenodd" clipRule="evenodd" d="M51.4082 36.7172C51.4082 35.8903 52.0785 35.22 52.9054 35.22H64.8833C65.7102 35.22 66.3805 35.8903 66.3805 36.7172V48.695C66.3805 49.5219 65.7102 50.1923 64.8833 50.1923H52.9054C52.0785 50.1923 51.4082 49.5219 51.4082 48.695V36.7172ZM69.3761 35.22C68.5492 35.22 67.8789 35.8903 67.8789 36.7172V48.695C67.8789 49.5219 68.5492 50.1923 69.3761 50.1923H81.354C82.1809 50.1923 82.8512 49.5219 82.8512 48.695V36.7172C82.8512 35.8903 82.1809 35.22 81.354 35.22H69.3761ZM69.3761 51.6897C68.5492 51.6897 67.8789 52.36 67.8789 53.1869V65.1648C67.8789 65.9917 68.5492 66.662 69.3761 66.662H81.354C82.1809 66.662 82.8512 65.9917 82.8512 65.1648V53.1869C82.8512 52.36 82.1809 51.6897 81.354 51.6897H69.3761ZM84.3496 36.7172C84.3496 35.8903 85.0199 35.22 85.8468 35.22H97.8247C98.6516 35.22 99.3219 35.8903 99.3219 36.7172V48.695C99.3219 49.5219 98.6516 50.1923 97.8247 50.1923H85.8468C85.0199 50.1923 84.3496 49.5219 84.3496 48.695V36.7172ZM85.8468 51.6897C85.0199 51.6897 84.3496 52.36 84.3496 53.1869V65.1648C84.3496 65.9917 85.0199 66.662 85.8468 66.662H97.8247C98.6516 66.662 99.3219 65.9917 99.3219 65.1648V53.1869C99.3219 52.36 98.6516 51.6897 97.8247 51.6897H85.8468ZM52.9054 51.6897C52.0785 51.6897 51.4082 52.36 51.4082 53.1869V65.1648C51.4082 65.9917 52.0785 66.662 52.9054 66.662H64.8833C65.7102 66.662 66.3805 65.9917 66.3805 65.1648V53.1869C66.3805 52.36 65.7102 51.6897 64.8833 51.6897H52.9054Z" fill="#FFD7EF"/>
</g>
<defs>
<filter id="filter0_d_448_3138" x="0.285156" y="0.566528" width="117.219" height="102.463" filterUnits="userSpaceOnUse" color-interpolation-filters="sRGB">
<feFlood flood-opacity="0" result="BackgroundImageFix"/>
<feColorMatrix in="SourceAlpha" type="matrix" values="0 0 0 0 0 0 0 0 0 0 0 0 0 0 0 0 0 0 127 0" result="hardAlpha"/>
<feOffset dy="1.71441"/>
<feComposite in2="hardAlpha" operator="out"/>
<feColorMatrix type="matrix" values="0 0 0 0 0.421819 0 0 0 0 0.25969 0 0 0 0 0.753445 0 0 0 1 0"/>
<feBlend mode="normal" in2="BackgroundImageFix" result="effect1_dropShadow_448_3138"/>
<feBlend mode="normal" in="SourceGraphic" in2="effect1_dropShadow_448_3138" result="shape"/>
</filter>
<filter id="filter1_d_448_3138" x="37.4082" y="23.22" width="75.9141" height="59.442" filterUnits="userSpaceOnUse" color-interpolation-filters="sRGB">
<feFlood flood-opacity="0" result="BackgroundImageFix"/>
<feColorMatrix in="SourceAlpha" type="matrix" values="0 0 0 0 0 0 0 0 0 0 0 0 0 0 0 0 0 0 127 0" result="hardAlpha"/>
<feOffset dy="2"/>
<feGaussianBlur stdDeviation="7"/>
<feComposite in2="hardAlpha" operator="out"/>
<feColorMatrix type="matrix" values="0 0 0 0 0 0 0 0 0 0 0 0 0 0 0 0 0 0 0.25 0"/>
<feBlend mode="normal" in2="BackgroundImageFix" result="effect1_dropShadow_448_3138"/>
<feBlend mode="normal" in="SourceGraphic" in2="effect1_dropShadow_448_3138" result="shape"/>
</filter>
<linearGradient id="paint0_linear_448_3138" x1="58.8949" y1="2.28088" x2="58.8949" y2="99.6009" gradientUnits="userSpaceOnUse">
<stop stop-color="#E0CFFF"/>
<stop offset="1" stop-color="#C1A6FA"/>
</linearGradient>
<linearGradient id="paint1_linear_448_3138" x1="58.8949" y1="2.28088" x2="58.8949" y2="99.6009" gradientUnits="userSpaceOnUse">
<stop stop-color="#AA8FE3"/>
<stop offset="1" stop-color="#A58CD8"/>
</linearGradient>
</defs>
</svg>
